<svg width="16914" height="12766" viewBox="0 0 16914 12766" fill="none" xmlns="http://www.w3.org/2000/svg">
<rect width="16914" height="12766" fill="#E5E5E5"/>
<g clip-path="url(#clip0)">
<rect x="-1115" y="-644" width="18743" height="15834" fill="black"/>
<path d="M2947.1 2327.68C3112.81 2418.18 3287.31 2508.67 3350.58 2542.16C3400.73 2430.33 3472.78 2320.64 3574.5 2232.09C3449.58 2168.17 3322.46 2105.1 3209.26 2050.05C3088.4 2137.25 3004.35 2233.23 2947.1 2327.68Z" fill="#151515"/>
<path d="M3541.99 2100.97C3427.3 2070.65 3237.65 2044.33 3209.26 2050.05C3322.46 2105.1 3449.58 2168.17 3574.5 2232.09C3617.8 2242.67 3744.98 2244.31 3803.16 2243.8C3680.47 2174.33 3583.66 2119.07 3541.99 2100.97Z" fill="#151515"/>
<path d="M2846.09 2796.83C2924.72 2877.42 3114.91 3039.76 3246.64 3044.36C3242.44 2936.62 3263.57 2736.16 3350.58 2542.16C3287.31 2508.67 3112.81 2418.18 2947.1 2327.68C2831.24 2518.85 2825.2 2703.75 2846.09 2796.83Z" fill="#151515"/>
<path d="M4138.44 2865.1C4084.13 2876.43 3441.88 2591.8 3368.76 2551.89C3364.57 2549.59 3358.43 2546.32 3350.58 2542.16M4138.44 2865.1C4192.75 2853.77 4226.08 2680.54 4221.43 2624.01M4138.44 2865.1C4230.91 2897.64 4424.11 2961.74 4457.16 2957.79C4498.47 2952.85 4509.99 2947.21 4522.86 2913.36C4535.73 2879.51 4589.37 2776.41 4582.18 2749.85C4577.74 2733.44 4584.06 2723.53 4575.87 2712.63M4138.44 2865.1C4185.82 2966.5 4127.14 3035.09 4091.87 3056.71C4099.09 3077.79 4104.72 3133.13 4069.42 3185.78C4025.3 3251.59 3917.7 3224.58 3915.02 3230.99C3856.46 3424.7 3568.7 3170.22 3562.3 3167.54C3463.46 3259.8 3310.67 3123.86 3246.64 3044.36M4221.43 2624.01C4272.08 2552.76 4480.25 2665.3 4538.12 2689.54C4560.21 2698.79 4570.81 2705.9 4575.87 2712.63M4221.43 2624.01C4217.38 2574.8 3903.56 2400.48 3574.5 2232.09M4575.87 2712.63C4571.93 2708.36 4535.44 2633.48 4239.2 2481.94C4087.83 2404.5 3931.36 2316.39 3803.16 2243.8M3541.99 2100.97C3456.77 2063.97 3059.02 1898.69 3012.28 1879.11C2965.54 1859.54 2811.91 1837.02 2714.76 1838.89M3541.99 2100.97C3427.3 2070.65 3237.65 2044.33 3209.26 2050.05M3541.99 2100.97C3583.66 2119.07 3680.47 2174.33 3803.16 2243.8M2714.76 1838.89C2743.01 1838.35 2780.5 1857.66 2828.68 1873.04C2853.56 1880.98 3009.8 1953.06 3209.26 2050.05M2714.76 1838.89C2698.34 1839.2 2685.05 1846.23 2674.61 1864.63C2639.11 1927.21 2554.92 2046.84 2593.71 2109.55C2608.26 2133.08 2710.7 2195.6 2836.89 2266.64M2836.89 2266.64C2758.04 2295.17 2615.88 2385.53 2678.09 2518.75C2616 2579.55 2562.68 2720.27 2846.09 2796.83M2836.89 2266.64C2872.23 2286.54 2909.44 2307.11 2947.1 2327.68M2846.09 2796.83C2924.72 2877.42 3114.91 3039.76 3246.64 3044.36M2846.09 2796.83C2825.2 2703.75 2831.24 2518.85 2947.1 2327.68M3246.64 3044.36C3242.44 2936.62 3263.57 2736.16 3350.58 2542.16M3209.26 2050.05C3322.46 2105.1 3449.58 2168.17 3574.5 2232.09M3209.26 2050.05C3088.4 2137.25 3004.35 2233.23 2947.1 2327.68M3803.16 2243.8C3744.98 2244.31 3617.8 2242.67 3574.5 2232.09M3574.5 2232.09C3472.78 2320.64 3400.73 2430.33 3350.58 2542.16M2947.1 2327.68C3112.81 2418.18 3287.31 2508.67 3350.58 2542.16" stroke="#151515" stroke-width="50"/>
<ellipse cx="3542.93" cy="2953.86" rx="39.3901" ry="62.1948" transform="rotate(22.7256 3542.93 2953.86)" fill="#151515"/>
<ellipse cx="3841.38" cy="3057.04" rx="39.3901" ry="62.1948" transform="rotate(22.7256 3841.38 3057.04)" fill="#151515"/>
<path d="M8858.26 1335.49C8849.55 940.825 9580.87 730.245 9850.5 658.474C9802.16 705.521 9604.79 954.576 9699.5 1027.19C9817.89 1117.96 10160.1 1454.47 10242.7 1418.18C10308.7 1389.15 10498.7 1176.86 10523.3 1142.75C10696.1 2186.83 10119.4 2433.33 9954.73 2400.8C9790.08 2368.28 8869.16 1828.81 8858.26 1335.49Z" stroke="#151515" stroke-width="50" stroke-linecap="round"/>
<path d="M9695.03 1023.98C9613.16 937.383 9799.69 705.745 9848.03 658.688C9848.03 658.688 9935.36 526.105 10109.1 613.546C10307.7 713.492 10513.9 877.201 10549.8 982.109C10568.7 1037.3 10534 1124.7 10520.8 1142.98C10496.2 1177.1 10357 1346.47 10238.2 1414.98C10160.4 1459.88 9797.7 1132.57 9695.03 1023.98Z" fill="#151515" stroke="#151515" stroke-width="50" stroke-linecap="round"/>
<ellipse cx="9176.82" cy="1359.56" rx="50" ry="78" transform="rotate(45.3157 9176.82 1359.56)" fill="#151515"/>
<ellipse cx="9669.76" cy="1857.97" rx="50" ry="78" transform="rotate(45.3157 9669.76 1857.97)" fill="#151515"/>
<path fill-rule="evenodd" clip-rule="evenodd" d="M7279.81 5141C6856.46 4730.32 6896.62 4430.3 6994.87 4279.5C6844.7 4455.68 6617.02 4725.32 6578.08 4781.39C6522.44 4861.51 6568.99 5140.96 6931.18 5556.54C7220.93 5889 7507.09 5987.58 7613.96 5995.32L8221.81 5390.85C8093.89 5488.49 7726.65 5574.47 7279.81 5141ZM6923.01 4999.08C6888.3 5035.63 6842.06 5048.08 6819.74 5026.88C6797.42 5005.67 6807.46 4958.86 6842.17 4922.31C6876.88 4885.76 6923.12 4873.32 6945.44 4894.52C6967.77 4915.72 6957.72 4962.54 6923.01 4999.08ZM7363.55 5610.48C7385.87 5631.68 7432.11 5619.24 7466.82 5582.69C7501.53 5546.14 7511.58 5499.32 7489.25 5478.12C7466.93 5456.92 7420.69 5469.36 7385.98 5505.91C7351.27 5542.46 7341.22 5589.28 7363.55 5610.48Z" fill="#151515"/>
<path d="M6994.87 4279.5L7015.82 4293.15L6975.84 4263.28L6994.87 4279.5ZM7279.81 5141L7262.4 5158.94L7262.4 5158.94L7279.81 5141ZM6578.08 4781.39L6598.62 4795.65L6578.08 4781.39ZM6931.18 5556.54L6912.33 5572.96L6912.33 5572.96L6931.18 5556.54ZM7613.96 5995.32L7612.15 6020.26L7623.51 6021.08L7631.59 6013.05L7613.96 5995.32ZM8221.81 5390.85L8239.44 5408.58L8206.64 5370.98L8221.81 5390.85ZM8112.17 4463.81L8094.02 4480.99L8112.17 4463.81ZM7053.85 4210.44L7037.32 4191.69L7053.85 4210.44ZM8221.81 5390.85L8204.18 5373.12L8236.98 5410.72L8221.81 5390.85ZM6994.87 4279.5L6973.92 4265.85L7013.9 4295.71L6994.87 4279.5ZM6973.92 4265.85C6921.37 4346.52 6885.24 4465.95 6917.28 4617.95C6949.21 4769.49 7048.42 4951.37 7262.4 5158.94L7297.21 5123.05C7087.85 4919.95 6995.46 4746.48 6966.2 4607.64C6937.04 4469.26 6970.12 4363.28 7015.82 4293.15L6973.92 4265.85ZM6598.62 4795.65C6636.63 4740.91 6863.07 4472.67 7013.9 4295.71L6975.84 4263.28C6826.34 4438.69 6597.4 4709.74 6557.55 4767.13L6598.62 4795.65ZM6950.03 5540.11C6770.28 5333.87 6669.95 5162.62 6621.32 5034.31C6597 4970.13 6585.85 4917.31 6583.82 4876.62C6581.75 4835.3 6589.18 4809.24 6598.62 4795.65L6557.55 4767.13C6539.16 4793.6 6531.55 4832.52 6533.88 4879.12C6536.24 4926.34 6548.94 4984.38 6574.57 5052.03C6625.86 5187.37 6729.89 5363.63 6912.33 5572.96L6950.03 5540.11ZM7615.76 5970.39C7516.95 5963.23 7236.52 5868.83 6950.03 5540.11L6912.33 5572.96C7205.34 5909.16 7497.23 6011.94 7612.15 6020.26L7615.76 5970.39ZM8204.18 5373.12L7596.33 5977.59L7631.59 6013.05L8239.44 5408.58L8204.18 5373.12ZM7262.4 5158.94C7715.99 5598.95 8097.02 5517.55 8236.98 5410.72L8206.64 5370.98C8090.76 5459.43 7737.32 5549.98 7297.21 5123.05L7262.4 5158.94ZM6802.52 5045C6822.39 5063.88 6849.9 5065.06 6873.23 5058.78C6897.04 5052.37 6921.14 5037.35 6941.14 5016.3L6904.88 4981.87C6890.17 4997.37 6873.8 5006.85 6860.23 5010.5C6846.18 5014.28 6839.41 5011.08 6836.96 5008.75L6802.52 5045ZM6824.04 4905.09C6804.05 4926.14 6790.3 4950.99 6785.12 4975.1C6780.06 4998.72 6782.65 5026.13 6802.52 5045L6836.96 5008.75C6834.5 5006.42 6830.96 4999.82 6834.01 4985.59C6836.96 4971.86 6845.58 4955.02 6860.3 4939.52L6824.04 4905.09ZM6962.66 4876.39C6942.79 4857.52 6915.28 4856.34 6891.96 4862.61C6868.14 4869.02 6844.04 4884.04 6824.04 4905.09L6860.3 4939.52C6875.02 4924.03 6891.39 4914.55 6904.95 4910.9C6919 4907.12 6925.78 4910.32 6928.23 4912.64L6962.66 4876.39ZM6941.14 5016.3C6961.13 4995.25 6974.89 4970.4 6980.06 4946.29C6985.13 4922.67 6982.53 4895.26 6962.66 4876.39L6928.23 4912.64C6930.68 4914.97 6934.22 4921.58 6931.17 4935.8C6928.23 4949.53 6919.6 4966.37 6904.88 4981.87L6941.14 5016.3ZM7448.69 5565.47C7433.97 5580.97 7417.6 5590.45 7404.04 5594.1C7389.99 5597.88 7383.22 5594.68 7380.76 5592.35L7346.33 5628.61C7366.2 5647.48 7393.71 5648.66 7417.03 5642.38C7440.85 5635.97 7464.95 5620.96 7484.95 5599.9L7448.69 5565.47ZM7472.04 5496.25C7474.49 5498.58 7478.03 5505.18 7474.98 5519.41C7472.03 5533.14 7463.41 5549.98 7448.69 5565.47L7484.95 5599.9C7504.94 5578.85 7518.7 5554.01 7523.87 5529.89C7528.94 5506.27 7526.34 5478.87 7506.47 5459.99L7472.04 5496.25ZM7404.11 5523.13C7418.82 5507.63 7435.2 5498.15 7448.76 5494.5C7462.81 5490.72 7469.58 5493.92 7472.04 5496.25L7506.47 5459.99C7486.6 5441.12 7459.09 5439.94 7435.77 5446.22C7411.95 5452.63 7387.85 5467.64 7367.85 5488.7L7404.11 5523.13ZM7380.76 5592.35C7378.31 5590.02 7374.77 5583.42 7377.82 5569.19C7380.76 5555.46 7389.39 5538.62 7404.11 5523.13L7367.85 5488.7C7347.86 5509.75 7334.1 5534.59 7328.93 5558.71C7323.86 5582.33 7326.46 5609.73 7346.33 5628.61L7380.76 5592.35ZM8278.85 5368.85C8316.32 5315.65 8390.97 5202.15 8399.55 5042.31C8408.18 4881.51 8349.79 4678.46 8130.33 4446.62L8094.02 4480.99C8305.97 4704.91 8357.38 4895.09 8349.63 5039.63C8341.82 5185.12 8273.88 5289.07 8237.97 5340.06L8278.85 5368.85ZM8130.33 4446.62C7910.46 4214.35 7671.75 4120.63 7470.93 4099.81C7370.7 4089.41 7279.95 4097.17 7205.75 4114.89C7132.11 4132.47 7072.91 4160.31 7037.32 4191.69L7070.38 4229.19C7097.62 4205.18 7148.2 4180.03 7217.36 4163.52C7285.98 4147.14 7371.06 4139.72 7465.77 4149.54C7654.85 4169.15 7882.46 4257.51 8094.02 4480.99L8130.33 4446.62ZM8239.44 5408.58L8276.04 5372.18L8240.78 5336.72L8204.18 5373.12L8239.44 5408.58ZM8236.98 5410.72C8254.54 5397.32 8268.83 5383.08 8278.85 5368.85L8237.97 5340.06C8231.6 5349.11 8221.27 5359.81 8206.64 5370.98L8236.98 5410.72ZM7034.86 4194.18C7017.3 4214.7 6997.37 4238.03 6975.84 4263.28L7013.9 4295.71C7035.4 4270.49 7055.31 4247.18 7072.84 4226.7L7034.86 4194.18ZM7037.32 4191.69C7015.68 4210.76 6993.64 4235.58 6973.92 4265.85L7015.82 4293.15C7033.1 4266.62 7052.18 4245.24 7070.38 4229.19L7037.32 4191.69Z" fill="#151515"/>
<path d="M7072.27 5429.29C7081.68 5418.13 7102.05 5404.94 7108.15 5441.5C7114.24 5478.07 7137.76 5465.95 7148.75 5455.32" stroke="black" stroke-width="25" stroke-linecap="round"/>
<path d="M7651.96 4426.89C7554.72 4424.82 7352.9 4419.65 7323.48 4415.52L7380.01 4713.24L7707.93 4703.26L7651.96 4426.89Z" stroke="#151515" stroke-width="50"/>
<path d="M7871.95 4552.5L7631.88 4595.32C7668.92 4709.86 7744.58 4940.44 7750.83 4946.38C7757.09 4952.33 7886.95 4916.93 7951.09 4898.48L7871.95 4552.5Z" stroke="#151515" stroke-width="50"/>
<path d="M7617.43 5024.15C7521.96 4956.05 7327.67 4816.68 7314.32 4804L7439.58 4652.05L7638.31 4696.86L7617.43 5024.15Z" stroke="#151515" stroke-width="50"/>
<path d="M8047.25 4930.66C8074.93 4913.4 8092.18 4908.82 8104.48 4925.83C8116.78 4942.85 8102.84 4961.28 8078.97 4977.92C8055.1 4994.56 8021.85 4988.18 8015.36 4976.97C8008.87 4965.77 8012.65 4952.23 8047.25 4930.66Z" stroke="#151515" stroke-width="25"/>
<path d="M7925.83 5187.26C7953.51 5170 7986.5 5172.75 7998.8 5189.76C8011.1 5206.77 8001.68 5224.34 7965.85 5240.8C7930.03 5257.26 7905.16 5241.79 7898.67 5230.58C7892.18 5219.38 7891.24 5208.83 7925.83 5187.26Z" stroke="#151515" stroke-width="25"/>
<path d="M7737.67 5075.33C7778.77 5081.9 7806.55 5106.62 7802.37 5127.44C7798.2 5148.26 7773.58 5154.51 7725.73 5141.75C7677.87 5128.99 7669.11 5100.62 7673.34 5088.02C7677.57 5075.42 7686.29 5067.12 7737.67 5075.33Z" stroke="#151515" stroke-width="25"/>
<path d="M7381.35 5011.18C7397.68 5045.15 7395.15 5076.95 7379.12 5082.85C7363.1 5088.76 7346.51 5072.84 7330.92 5031.07C7315.33 4989.29 7329.88 4970.3 7340.44 4968.02C7351 4965.73 7360.94 4968.72 7381.35 5011.18Z" stroke="#151515" stroke-width="25"/>
<path d="M7202.25 4655.38C7229.09 4658.46 7243.44 4663.56 7242.38 4680.3C7241.33 4697.04 7231.44 4716.37 7199.78 4708.73C7168.12 4701.08 7160.29 4679.02 7162.02 4668.8C7163.74 4658.57 7168.69 4651.53 7202.25 4655.38Z" stroke="#151515" stroke-width="25"/>
<path d="M7314.02 4289.34C7318.03 4262.62 7352.78 4251.7 7369.47 4253.34C7386.17 4254.97 7389.97 4286.56 7381.23 4317.93C7372.48 4349.3 7351.98 4351.93 7341.82 4349.85C7331.66 4347.77 7309.01 4322.75 7314.02 4289.34Z" stroke="#151515" stroke-width="25"/>
<path d="M7742.4 4373.34C7768.81 4367.62 7798.38 4405.8 7802.76 4421.99C7807.15 4438.18 7778.96 4469 7746.52 4471.94C7714.09 4474.88 7705.01 4452.21 7703.36 4441.98C7701.7 4431.74 7709.38 4380.48 7742.4 4373.34Z" stroke="#151515" stroke-width="25"/>
<path fill-rule="evenodd" clip-rule="evenodd" d="M12866.8 10817C12443.5 10406.3 12483.6 10106.3 12581.9 9955.5C12431.7 10131.7 12204 10401.3 12165.1 10457.4C12109.4 10537.5 12156 10817 12518.2 11232.5C12807.9 11565 13094.1 11663.6 13201 11671.3L13808.8 11066.8C13680.9 11164.5 13313.7 11250.5 12866.8 10817ZM12510 10675.1C12475.3 10711.6 12429.1 10724.1 12406.7 10702.9C12384.4 10681.7 12394.5 10634.9 12429.2 10598.3C12463.9 10561.8 12510.1 10549.3 12532.4 10570.5C12554.8 10591.7 12544.7 10638.5 12510 10675.1ZM12950.5 11286.5C12972.9 11307.7 13019.1 11295.2 13053.8 11258.7C13088.5 11222.1 13098.6 11175.3 13076.3 11154.1C13053.9 11132.9 13007.7 11145.4 12973 11181.9C12938.3 11218.5 12928.2 11265.3 12950.5 11286.5Z" fill="#151515"/>
<path d="M12581.9 9955.5L12602.8 9969.15L12562.8 9939.28L12581.9 9955.5ZM12866.8 10817L12849.4 10834.9L12849.4 10834.9L12866.8 10817ZM12165.1 10457.4L12185.6 10471.6L12165.1 10457.4ZM12518.2 11232.5L12499.3 11249L12499.3 11249L12518.2 11232.5ZM13201 11671.3L13199.2 11696.3L13210.5 11697.1L13218.6 11689L13201 11671.3ZM13808.8 11066.8L13826.4 11084.6L13793.6 11047L13808.8 11066.8ZM13699.2 10139.8L13681 10157L13699.2 10139.8ZM12640.8 9886.44L12624.3 9867.69L12640.8 9886.44ZM13808.8 11066.8L13791.2 11049.1L13824 11086.7L13808.8 11066.8ZM12581.9 9955.5L12560.9 9941.85L12600.9 9971.71L12581.9 9955.5ZM12560.9 9941.85C12508.4 10022.5 12472.2 10141.9 12504.3 10293.9C12536.2 10445.5 12635.4 10627.4 12849.4 10834.9L12884.2 10799.1C12674.8 10596 12582.5 10422.5 12553.2 10283.6C12524 10145.3 12557.1 10039.3 12602.8 9969.15L12560.9 9941.85ZM12185.6 10471.6C12223.6 10416.9 12450.1 10148.7 12600.9 9971.71L12562.8 9939.28C12413.3 10114.7 12184.4 10385.7 12144.5 10443.1L12185.6 10471.6ZM12537 11216.1C12357.3 11009.9 12256.9 10838.6 12208.3 10710.3C12184 10646.1 12172.9 10593.3 12170.8 10552.6C12168.8 10511.3 12176.2 10485.2 12185.6 10471.6L12144.5 10443.1C12126.2 10469.6 12118.5 10508.5 12120.9 10555.1C12123.2 10602.3 12135.9 10660.4 12161.6 10728C12212.9 10863.4 12316.9 11039.6 12499.3 11249L12537 11216.1ZM13202.8 11646.4C13104 11639.2 12823.5 11544.8 12537 11216.1L12499.3 11249C12792.3 11585.2 13084.2 11687.9 13199.2 11696.3L13202.8 11646.4ZM13791.2 11049.1L13183.3 11653.6L13218.6 11689L13826.4 11084.6L13791.2 11049.1ZM12849.4 10834.9C13303 11275 13684 11193.6 13824 11086.7L13793.6 11047C13677.8 11135.4 13324.3 11226 12884.2 10799.1L12849.4 10834.9ZM12389.5 10721C12409.4 10739.9 12436.9 10741.1 12460.2 10734.8C12484 10728.4 12508.1 10713.4 12528.1 10692.3L12491.9 10657.9C12477.2 10673.4 12460.8 10682.8 12447.2 10686.5C12433.2 10690.3 12426.4 10687.1 12424 10684.7L12389.5 10721ZM12411 10581.1C12391 10602.1 12377.3 10627 12372.1 10651.1C12367.1 10674.7 12369.7 10702.1 12389.5 10721L12424 10684.7C12421.5 10682.4 12418 10675.8 12421 10661.6C12424 10647.9 12432.6 10631 12447.3 10615.5L12411 10581.1ZM12549.7 10552.4C12529.8 10533.5 12502.3 10532.3 12479 10538.6C12455.1 10545 12431 10560 12411 10581.1L12447.3 10615.5C12462 10600 12478.4 10590.5 12491.9 10586.9C12506 10583.1 12512.8 10586.3 12515.2 10588.6L12549.7 10552.4ZM12528.1 10692.3C12548.1 10671.2 12561.9 10646.4 12567.1 10622.3C12572.1 10598.7 12569.5 10571.3 12549.7 10552.4L12515.2 10588.6C12517.7 10591 12521.2 10597.6 12518.2 10611.8C12515.2 10625.5 12506.6 10642.4 12491.9 10657.9L12528.1 10692.3ZM13035.7 11241.5C13021 11257 13004.6 11266.4 12991 11270.1C12977 11273.9 12970.2 11270.7 12967.8 11268.4L12933.3 11304.6C12953.2 11323.5 12980.7 11324.7 13004 11318.4C13027.8 11312 13052 11297 13071.9 11275.9L13035.7 11241.5ZM13059 11172.2C13061.5 11174.6 13065 11181.2 13062 11195.4C13059 11209.1 13050.4 11226 13035.7 11241.5L13071.9 11275.9C13091.9 11254.9 13105.7 11230 13110.9 11205.9C13115.9 11182.3 13113.3 11154.9 13093.5 11136L13059 11172.2ZM12991.1 11199.1C13005.8 11183.6 13022.2 11174.2 13035.8 11170.5C13049.8 11166.7 13056.6 11169.9 13059 11172.2L13093.5 11136C13073.6 11117.1 13046.1 11115.9 13022.8 11122.2C12998.9 11128.6 12974.8 11143.6 12954.9 11164.7L12991.1 11199.1ZM12967.8 11268.4C12965.3 11266 12961.8 11259.4 12964.8 11245.2C12967.8 11231.5 12976.4 11214.6 12991.1 11199.1L12954.9 11164.7C12934.9 11185.7 12921.1 11210.6 12915.9 11234.7C12910.9 11258.3 12913.5 11285.7 12933.3 11304.6L12967.8 11268.4ZM13865.8 11044.8C13903.3 10991.7 13978 10878.2 13986.6 10718.3C13995.2 10557.5 13936.8 10354.5 13717.3 10122.6L13681 10157C13893 10380.9 13944.4 10571.1 13936.6 10715.6C13928.8 10861.1 13860.9 10965.1 13825 11016.1L13865.8 11044.8ZM13717.3 10122.6C13497.5 9890.35 13258.7 9796.63 13057.9 9775.81C12957.7 9765.41 12866.9 9773.17 12792.8 9790.89C12719.1 9808.47 12659.9 9836.31 12624.3 9867.69L12657.4 9905.19C12684.6 9881.18 12735.2 9856.03 12804.4 9839.52C12873 9823.14 12958.1 9815.72 13052.8 9825.54C13241.8 9845.15 13469.5 9933.51 13681 10157L13717.3 10122.6ZM13826.4 11084.6L13863 11048.2L13827.8 11012.7L13791.2 11049.1L13826.4 11084.6ZM13824 11086.7C13841.5 11073.3 13855.8 11059.1 13865.9 11044.8L13825 11016.1C13818.6 11025.1 13808.3 11035.8 13793.6 11047L13824 11086.7ZM12621.9 9870.18C12604.3 9890.7 12584.4 9914.03 12562.8 9939.28L12600.9 9971.71C12622.4 9946.49 12642.3 9923.18 12659.8 9902.7L12621.9 9870.18ZM12624.3 9867.69C12602.7 9886.76 12580.6 9911.58 12560.9 9941.85L12602.8 9969.15C12620.1 9942.62 12639.2 9921.24 12657.4 9905.19L12624.3 9867.69Z" fill="#151515"/>
<path d="M12659.3 11105.3C12668.7 11094.1 12689 11080.9 12695.1 11117.5C12701.2 11154.1 12724.8 11142 12735.7 11131.3" stroke="black" stroke-width="25" stroke-linecap="round"/>
<path d="M13239 10102.9C13141.7 10100.8 12939.9 10095.6 12910.5 10091.5L12967 10389.2L13294.9 10379.3L13239 10102.9Z" stroke="#151515" stroke-width="50"/>
<path d="M13459 10228.5L13218.9 10271.3C13255.9 10385.9 13331.6 10616.4 13337.8 10622.4C13344.1 10628.3 13473.9 10592.9 13538.1 10574.5L13459 10228.5Z" stroke="#151515" stroke-width="50"/>
<path d="M13204.4 10700.1C13109 10632 12914.7 10492.7 12901.3 10480L13026.6 10328L13225.3 10372.9L13204.4 10700.1Z" stroke="#151515" stroke-width="50"/>
<path d="M13634.3 10606.7C13661.9 10589.4 13679.2 10584.8 13691.5 10601.8C13703.8 10618.8 13689.8 10637.3 13666 10653.9C13642.1 10670.6 13608.9 10664.2 13602.4 10653C13595.9 10641.8 13599.7 10628.2 13634.3 10606.7Z" stroke="#151515" stroke-width="25"/>
<path d="M13512.8 10863.3C13540.5 10846 13573.5 10848.7 13585.8 10865.8C13598.1 10882.8 13588.7 10900.3 13552.9 10916.8C13517 10933.3 13492.2 10917.8 13485.7 10906.6C13479.2 10895.4 13478.2 10884.8 13512.8 10863.3Z" stroke="#151515" stroke-width="25"/>
<path d="M13324.7 10751.3C13365.8 10757.9 13393.6 10782.6 13389.4 10803.4C13385.2 10824.3 13360.6 10830.5 13312.7 10817.7C13264.9 10805 13256.1 10776.6 13260.3 10764C13264.6 10751.4 13273.3 10743.1 13324.7 10751.3Z" stroke="#151515" stroke-width="25"/>
<path d="M12968.4 10687.2C12984.7 10721.2 12982.2 10753 12966.1 10758.9C12950.1 10764.8 12933.5 10748.8 12917.9 10707.1C12902.3 10665.3 12916.9 10646.3 12927.4 10644C12938 10641.7 12947.9 10644.7 12968.4 10687.2Z" stroke="#151515" stroke-width="25"/>
<path d="M12789.2 10331.4C12816.1 10334.5 12830.4 10339.6 12829.4 10356.3C12828.3 10373 12818.4 10392.4 12786.8 10384.7C12755.1 10377.1 12747.3 10355 12749 10344.8C12750.7 10334.6 12755.7 10327.5 12789.2 10331.4Z" stroke="#151515" stroke-width="25"/>
<path d="M12901 9965.34C12905 9938.62 12939.8 9927.7 12956.5 9929.34C12973.2 9930.97 12977 9962.56 12968.2 9993.93C12959.5 10025.3 12939 10027.9 12928.8 10025.8C12918.7 10023.8 12896 9998.75 12901 9965.34Z" stroke="#151515" stroke-width="25"/>
<path d="M13329.4 10049.3C13355.8 10043.6 13385.4 10081.8 13389.8 10098C13394.2 10114.2 13366 10145 13333.5 10147.9C13301.1 10150.9 13292 10128.2 13290.4 10118C13288.7 10107.7 13296.4 10056.5 13329.4 10049.3Z" stroke="#151515" stroke-width="25"/>
<path d="M1234.11 7880.09C1885.18 8481.39 2603.93 8626.84 2881.92 8624.4C2926.25 8603.45 3007.34 8533.13 2977.09 8419.42C2946.84 8305.7 2865.65 8256.93 2828.84 8246.76C2841.24 8190.23 2833.23 8049.46 2701.94 7938.67C2570.66 7827.88 2403.62 7820.92 2336.51 7831.29C2355.02 7791.44 2342.61 7692.93 2144.95 7617.77C1947.28 7542.6 1816.12 7610.44 1775.24 7653.75C1720.54 7607.59 1571.12 7529.91 1411.03 7588.48C1250.95 7647.04 1226.38 7807.29 1234.11 7880.09Z" stroke="#151515" stroke-width="50" stroke-linecap="round"/>
<path fill-rule="evenodd" clip-rule="evenodd" d="M1035.82 8307.14L1234.1 7880.09C1885.17 8481.39 2603.92 8626.84 2881.91 8624.4C2881.91 8624.4 2707.42 9000.21 2634.82 9111.85C2562.22 9223.49 2193.35 9119.9 2145.54 9092.32C2099.4 9065.7 2079.65 9144.79 2140.05 9193.59C2200.45 9242.4 2218.75 9292.43 2161.08 9307.18C2103.41 9321.93 1949.1 9291.81 1879.55 9217.99C1825.63 9160.77 1832.58 9106.84 1837.86 9065.87C1839.39 9054 1840.78 9043.21 1840.51 9033.75C1839.29 8991.66 1626.37 8913.56 1584.28 8914.78C1557.52 8915.56 1551.47 8925.95 1538.08 8948.92L1538.08 8948.92C1530.4 8962.09 1520.31 8979.4 1502.52 9001.41C1453.72 9061.81 1360.38 9039.24 1309.13 9015.44C1257.88 8991.65 1163.32 8926.98 1187.12 8875.73C1201.14 8845.53 1227.88 8850.08 1257.73 8855.17C1278.51 8858.71 1300.79 8862.51 1321.33 8854.99C1361.35 8840.35 1364.45 8791.95 1360.99 8769.58C1052.29 8584.73 1004.1 8375.47 1035.82 8307.14ZM2451.92 8946.35C2442.2 8976 2418.29 8994.78 2398.52 8988.29C2378.75 8981.81 2370.62 8952.52 2380.35 8922.87C2390.07 8893.22 2413.98 8874.44 2433.75 8880.93C2453.52 8887.41 2461.65 8916.7 2451.92 8946.35ZM1950.87 8781.95C1941.14 8811.6 1917.23 8830.38 1897.47 8823.89C1877.7 8817.41 1869.56 8788.11 1879.29 8758.46C1889.02 8728.81 1912.93 8710.04 1932.7 8716.52C1952.46 8723.01 1960.6 8752.3 1950.87 8781.95Z" fill="#151515"/>
<path d="M1234.1 7880.09L1242.58 7870.91L1229.99 7859.27L1222.76 7874.83L1234.1 7880.09ZM1035.82 8307.14L1047.16 8312.41L1035.82 8307.14ZM2881.91 8624.4L2893.25 8629.66L2901.58 8611.73L2881.8 8611.9L2881.91 8624.4ZM2145.54 9092.32L2151.79 9081.49L2151.79 9081.49L2145.54 9092.32ZM2140.05 9193.59L2132.2 9203.32L2132.2 9203.32L2140.05 9193.59ZM2161.08 9307.18L2157.98 9295.07L2157.98 9295.07L2161.08 9307.18ZM1879.55 9217.99L1870.45 9226.57L1870.45 9226.57L1879.55 9217.99ZM1837.86 9065.87L1825.46 9064.28L1825.46 9064.28L1837.86 9065.87ZM1840.51 9033.75L1828.01 9034.11L1828.01 9034.11L1840.51 9033.75ZM1584.28 8914.78L1584.64 8927.28L1584.64 8927.28L1584.28 8914.78ZM1538.08 8948.92L1527.28 8942.62L1526.98 8943.13L1526.74 8943.66L1538.08 8948.92ZM1538.08 8948.92L1548.88 8955.21L1549.17 8954.71L1549.41 8954.18L1538.08 8948.92ZM1502.52 9001.41L1492.8 8993.56L1492.8 8993.56L1502.52 9001.41ZM1257.73 8855.17L1255.63 8867.49L1255.63 8867.49L1257.73 8855.17ZM1321.33 8854.99L1325.63 8866.73L1325.63 8866.73L1321.33 8854.99ZM1360.99 8769.58L1373.34 8767.67L1372.45 8761.87L1367.41 8758.86L1360.99 8769.58ZM2451.92 8946.35L2463.8 8950.25L2463.8 8950.25L2451.92 8946.35ZM2380.35 8922.87L2368.47 8918.97L2368.47 8918.97L2380.35 8922.87ZM1950.87 8781.95L1938.99 8778.05L1938.99 8778.05L1950.87 8781.95ZM1879.29 8758.46L1891.17 8762.36L1891.17 8762.36L1879.29 8758.46ZM1222.76 7874.83L1024.49 8301.88L1047.16 8312.41L1245.44 7885.35L1222.76 7874.83ZM2881.8 8611.9C2606.83 8614.31 1891.2 8469.94 1242.58 7870.91L1225.62 7889.27C1879.14 8492.84 2601.01 8639.36 2882.02 8636.9L2881.8 8611.9ZM2645.3 9118.66C2682.11 9062.07 2744.23 8939.44 2796.82 8831.74C2823.2 8777.73 2847.3 8727.22 2864.81 8690.21C2873.57 8671.7 2880.67 8656.57 2885.59 8646.07C2888.05 8640.81 2889.96 8636.71 2891.26 8633.93C2891.91 8632.54 2892.41 8631.47 2892.74 8630.75C2892.91 8630.4 2893.03 8630.12 2893.12 8629.94C2893.16 8629.85 2893.19 8629.78 2893.22 8629.73C2893.23 8629.71 2893.23 8629.69 2893.24 8629.68C2893.24 8629.68 2893.24 8629.67 2893.25 8629.67C2893.25 8629.67 2893.25 8629.66 2881.91 8624.4C2870.57 8619.14 2870.57 8619.14 2870.57 8619.14C2870.57 8619.14 2870.57 8619.15 2870.57 8619.15C2870.56 8619.16 2870.55 8619.18 2870.54 8619.2C2870.52 8619.25 2870.49 8619.31 2870.45 8619.4C2870.36 8619.58 2870.24 8619.85 2870.07 8620.21C2869.74 8620.92 2869.25 8621.98 2868.6 8623.37C2867.31 8626.14 2865.4 8630.23 2862.95 8635.47C2858.04 8645.95 2850.95 8661.05 2842.21 8679.52C2824.74 8716.46 2800.68 8766.88 2774.36 8820.77C2721.56 8928.89 2660.14 9049.99 2624.35 9105.03L2645.3 9118.66ZM2139.3 9103.15C2152.79 9110.94 2186.27 9122.93 2228.59 9134.75C2271.46 9146.71 2324.85 9158.88 2379.11 9166.67C2433.24 9174.43 2488.88 9177.93 2535.98 9172.18C2582.48 9166.51 2624.02 9151.4 2645.3 9118.66L2624.35 9105.03C2609.33 9128.12 2577.53 9141.93 2532.95 9147.37C2488.98 9152.73 2435.8 9149.54 2382.66 9141.92C2329.65 9134.31 2277.32 9122.39 2235.31 9110.67C2192.76 9098.79 2162.19 9087.5 2151.79 9081.49L2139.3 9103.15ZM2147.91 9183.87C2120.7 9161.89 2112.75 9134.09 2115.23 9116.41C2116.48 9107.41 2120.08 9102.61 2123.15 9100.77C2125.59 9099.31 2130.49 9098.06 2139.3 9103.15L2151.79 9081.49C2137.53 9073.27 2122.65 9071.93 2110.3 9079.33C2098.58 9086.36 2092.36 9099.39 2090.47 9112.94C2086.63 9140.34 2099 9176.49 2132.2 9203.32L2147.91 9183.87ZM2164.18 9319.29C2180.18 9315.2 2192.95 9308.16 2200.74 9297.4C2208.8 9286.28 2210.1 9273.16 2207 9260.24C2201.07 9235.59 2178.59 9208.67 2147.91 9183.87L2132.2 9203.32C2161.91 9227.33 2178.78 9249.82 2182.69 9266.08C2184.5 9273.6 2183.34 9278.81 2180.49 9282.74C2177.38 9287.03 2170.82 9291.79 2157.98 9295.07L2164.18 9319.29ZM1870.45 9226.57C1907.48 9265.87 1965.98 9292.67 2021.47 9307.86C2049.41 9315.51 2077.04 9320.34 2101.54 9322.31C2125.82 9324.26 2147.85 9323.47 2164.18 9319.29L2157.98 9295.07C2145.48 9298.27 2126.59 9299.24 2103.55 9297.39C2080.72 9295.55 2054.62 9291.01 2028.07 9283.75C1974.6 9269.11 1921.16 9243.94 1888.65 9209.42L1870.45 9226.57ZM1825.46 9064.28C1822.84 9084.62 1819.49 9110.08 1824.18 9137.91C1828.94 9166.12 1841.81 9196.17 1870.45 9226.57L1888.65 9209.42C1863.37 9182.59 1852.76 9157.06 1848.83 9133.76C1844.84 9110.07 1847.6 9088.09 1850.26 9067.47L1825.46 9064.28ZM1828.01 9034.11C1828.25 9042.39 1827.03 9052.11 1825.46 9064.28L1850.26 9067.47C1851.75 9055.88 1853.31 9044.04 1853 9033.39L1828.01 9034.11ZM1584.64 8927.28C1588.32 8927.17 1595.03 8927.98 1604.71 8930.04C1614.13 8932.05 1625.56 8935.07 1638.29 8938.91C1663.75 8946.58 1693.94 8957.39 1722.88 8969.55C1751.9 8981.74 1779.22 8995.09 1799.17 9007.78C1809.18 9014.15 1816.86 9020.05 1821.93 9025.24C1827.4 9030.84 1828 9033.74 1828.01 9034.11L1853 9033.39C1852.71 9023.24 1846.39 9014.49 1839.81 9007.77C1832.84 9000.63 1823.36 8993.54 1812.58 8986.68C1790.95 8972.93 1762.18 8958.94 1732.56 8946.5C1702.86 8934.02 1671.85 8922.91 1645.51 8914.97C1632.34 8911 1620.22 8907.79 1609.93 8905.59C1599.9 8903.46 1590.75 8902.09 1583.91 8902.29L1584.64 8927.28ZM1548.88 8955.21C1555.95 8943.08 1559.71 8936.92 1564.27 8933.04C1567.9 8929.95 1572.96 8927.62 1584.64 8927.28L1583.91 8902.29C1568.84 8902.73 1557.49 8905.97 1548.06 8914.01C1539.55 8921.26 1533.6 8931.78 1527.28 8942.62L1548.88 8955.21ZM1549.41 8954.18L1549.42 8954.18L1526.74 8943.66L1526.74 8943.66L1549.41 8954.18ZM1512.25 9009.27C1530.65 8986.5 1541.12 8968.52 1548.88 8955.21L1527.28 8942.63C1519.68 8955.66 1509.97 8972.31 1492.8 8993.56L1512.25 9009.27ZM1303.87 9026.78C1330.5 9039.15 1368.34 9051.36 1406.37 9052.49C1444.51 9053.63 1484.53 9043.57 1512.25 9009.27L1492.8 8993.56C1471.71 9019.65 1440.66 9028.5 1407.11 9027.51C1373.46 9026.5 1339.01 9015.53 1314.39 9004.11L1303.87 9026.78ZM1175.78 8870.47C1167.84 8887.57 1170.23 8905.2 1177.59 8921.09C1184.85 8936.76 1197.3 8951.66 1211.4 8964.97C1239.67 8991.65 1277.33 9014.46 1303.87 9026.78L1314.39 9004.11C1289.68 8992.63 1254.44 8971.21 1228.56 8946.79C1215.6 8934.56 1205.66 8922.2 1200.28 8910.58C1195 8899.19 1194.5 8889.52 1198.45 8881L1175.78 8870.47ZM1259.82 8842.85C1245.53 8840.41 1229.12 8837.47 1214.46 8839.88C1206.77 8841.15 1199.18 8843.91 1192.33 8849.09C1185.48 8854.27 1179.99 8861.4 1175.78 8870.47L1198.45 8881C1201.25 8874.97 1204.37 8871.33 1207.41 8869.03C1210.45 8866.74 1214.04 8865.29 1218.52 8864.55C1228.2 8862.96 1240.08 8864.84 1255.63 8867.49L1259.82 8842.85ZM1317.04 8843.25C1300.15 8849.43 1281.28 8846.5 1259.82 8842.85L1255.63 8867.49C1275.73 8870.92 1301.43 8875.58 1325.63 8866.73L1317.04 8843.25ZM1348.64 8771.49C1350.13 8781.19 1350.19 8796.87 1345.56 8811.38C1341.01 8825.62 1332.39 8837.64 1317.04 8843.25L1325.63 8866.73C1350.3 8857.71 1363.24 8838.2 1369.37 8818.99C1375.42 8800.05 1375.3 8780.35 1373.34 8767.67L1348.64 8771.49ZM1024.49 8301.88C1015.16 8321.96 1012.38 8350.57 1017.48 8384.11C1022.61 8417.9 1035.87 8457.65 1059.82 8500.74C1107.75 8586.97 1198.71 8686.97 1354.57 8780.31L1367.41 8758.86C1214.57 8667.34 1127.08 8570.29 1081.67 8488.59C1058.96 8447.72 1046.82 8410.79 1042.19 8380.35C1037.53 8349.66 1040.62 8326.49 1047.16 8312.41L1024.49 8301.88ZM2394.62 9000.17C2409.71 9005.12 2424.93 8999.95 2436.71 8990.71C2448.57 8981.39 2458.28 8967.09 2463.8 8950.25L2440.05 8942.46C2435.85 8955.26 2428.74 8965.18 2421.27 8971.04C2413.71 8976.97 2407.09 8977.95 2402.42 8976.42L2394.62 9000.17ZM2368.47 8918.97C2362.94 8935.81 2362.29 8953.08 2366.33 8967.61C2370.34 8982.04 2379.53 8995.22 2394.62 9000.17L2402.42 8976.42C2397.74 8974.88 2392.99 8970.17 2390.42 8960.92C2387.87 8951.77 2388.02 8939.57 2392.22 8926.76L2368.47 8918.97ZM2437.65 8869.05C2422.56 8864.1 2407.34 8869.27 2395.56 8878.52C2383.7 8887.83 2373.99 8902.13 2368.47 8918.97L2392.22 8926.76C2396.42 8913.96 2403.53 8904.04 2411 8898.18C2418.56 8892.25 2425.18 8891.27 2429.85 8892.8L2437.65 8869.05ZM2463.8 8950.25C2469.33 8933.41 2469.98 8916.14 2465.94 8901.61C2461.93 8887.18 2452.74 8874 2437.65 8869.05L2429.85 8892.8C2434.53 8894.34 2439.28 8899.05 2441.85 8908.3C2444.4 8917.45 2444.25 8929.65 2440.05 8942.46L2463.8 8950.25ZM1893.57 8835.77C1908.66 8840.72 1923.88 8835.55 1935.65 8826.3C1947.51 8816.99 1957.22 8802.69 1962.75 8785.85L1938.99 8778.05C1934.79 8790.86 1927.68 8800.77 1920.21 8806.64C1912.66 8812.57 1906.04 8813.55 1901.36 8812.01L1893.57 8835.77ZM1867.41 8754.57C1861.89 8771.41 1861.24 8788.68 1865.27 8803.21C1869.28 8817.64 1878.48 8830.82 1893.57 8835.77L1901.36 8812.01C1896.69 8810.48 1891.93 8805.77 1889.36 8796.52C1886.82 8787.37 1886.97 8775.17 1891.17 8762.36L1867.41 8754.57ZM1936.59 8704.65C1921.5 8699.69 1906.29 8704.86 1894.51 8714.11C1882.65 8723.43 1872.94 8737.72 1867.41 8754.57L1891.17 8762.36C1895.37 8749.55 1902.48 8739.64 1909.95 8733.77C1917.5 8727.84 1924.12 8726.87 1928.8 8728.4L1936.59 8704.65ZM1962.75 8785.85C1968.27 8769 1968.92 8751.73 1964.89 8737.2C1960.88 8722.78 1951.68 8709.6 1936.59 8704.65L1928.8 8728.4C1933.47 8729.93 1938.23 8734.64 1940.8 8743.9C1943.34 8753.05 1943.2 8765.25 1938.99 8778.05L1962.75 8785.85Z" fill="#151515"/>
<path d="M1722.24 7771.33C1844.43 7727.1 2048.25 7683.84 2008.56 7825.07C1968.88 7966.31 1811.36 7844.8 1722.24 7771.33Z" stroke="#151515" stroke-width="25" stroke-linecap="round"/>
<path d="M2083.92 7650.83C2192.97 7721.5 2350.55 7857.81 2214.01 7911.49C2077.48 7965.17 2079.19 7766.23 2083.92 7650.83Z" stroke="#151515" stroke-width="25" stroke-linecap="round"/>
<path d="M1948.22 8015.67C1975.57 7940.97 2049.03 7847.41 2089.25 7940.62C2129.48 8033.82 2009.09 8018.64 1948.22 8015.67Z" stroke="#151515" stroke-width="25" stroke-linecap="round"/>
<path d="M2274.47 8101.17C2197.12 8082.58 2095.75 8020.33 2183.73 7969.68C2271.71 7919.03 2270.44 8040.37 2274.47 8101.17Z" stroke="#151515" stroke-width="25" stroke-linecap="round"/>
<path d="M2500.89 8213.34C2451.07 8129.53 2500.71 7946.48 2612.88 8027.06C2725.05 8107.64 2567.92 8244.74 2500.89 8213.34Z" stroke="#151515" stroke-width="25" stroke-linecap="round"/>
<path fill-rule="evenodd" clip-rule="evenodd" d="M6095.59 9046.48C5987.26 9119.01 4668 10951.1 4668 10951.1C4668 10951.1 6697.95 9905.78 6755.22 9868.14C6498.74 9982.86 6295.4 9808.95 6151.24 9632.9C6007.08 9456.84 5977.42 9188.77 6095.59 9046.48ZM5876.06 9651.25C5830.45 9695.03 5773.4 9709.61 5748.63 9683.8C5723.85 9658 5740.74 9601.59 5786.35 9557.8C5831.96 9514.02 5889.01 9499.44 5913.78 9525.25C5938.56 9551.05 5921.67 9607.46 5876.06 9651.25ZM6007.59 9963.4C6032.91 9989.77 6093.32 9972.85 6142.53 9925.61C6191.74 9878.37 6211.1 9818.7 6185.78 9792.33C6160.47 9765.95 6100.05 9782.87 6050.84 9830.11C6001.64 9877.35 5982.27 9937.03 6007.59 9963.4Z" fill="#151515"/>
<path d="M4668 10951.1L4647.71 10936.5C4640.96 10945.9 4641.51 10958.7 4649.06 10967.4C4656.6 10976.2 4669.17 10978.6 4679.45 10973.3L4668 10951.1ZM6095.59 9046.48L6114.82 9062.45C6122.76 9052.9 6122.48 9038.96 6114.16 9029.74C6105.84 9020.51 6092.01 9018.8 6081.68 9025.71L6095.59 9046.48ZM6755.22 9868.14L6768.95 9889.03C6779.84 9881.88 6783.41 9867.56 6777.15 9856.13C6770.89 9844.71 6756.91 9840 6745.02 9845.32L6755.22 9868.14ZM5748.63 9683.8L5730.59 9701.11L5730.59 9701.11L5748.63 9683.8ZM5876.06 9651.25L5893.37 9669.28L5893.37 9669.28L5876.06 9651.25ZM5913.78 9525.25L5931.82 9507.93L5931.82 9507.93L5913.78 9525.25ZM6142.53 9925.61L6125.21 9907.58L6125.21 9907.58L6142.53 9925.61ZM6007.59 9963.4L6025.62 9946.09L6025.62 9946.09L6007.59 9963.4ZM6050.84 9830.11L6033.53 9812.08L6033.53 9812.08L6050.84 9830.11ZM6741.49 9847.25C6729.96 9854.83 6726.75 9870.33 6734.33 9881.87C6741.91 9893.41 6757.42 9896.62 6768.95 9889.03L6741.49 9847.25ZM6738.45 9252.5L6759.25 9238.62L6759.25 9238.62L6738.45 9252.5ZM6081.68 9025.71C6070.21 9033.39 6067.14 9048.92 6074.82 9060.39C6082.5 9071.86 6098.03 9074.94 6109.5 9067.25L6081.68 9025.71ZM4668 10951.1C4688.29 10965.7 4688.29 10965.7 4688.3 10965.7C4688.31 10965.7 4688.33 10965.7 4688.35 10965.6C4688.39 10965.6 4688.45 10965.5 4688.53 10965.4C4688.69 10965.2 4688.93 10964.8 4689.24 10964.4C4689.88 10963.5 4690.82 10962.2 4692.07 10960.5C4694.57 10957 4698.28 10951.9 4703.12 10945.2C4712.81 10931.7 4727.03 10912 4745.17 10886.9C4781.44 10836.7 4833.39 10764.8 4896.07 10678.4C5021.42 10505.5 5189.68 10274.3 5361.32 10040.8C5532.97 9807.29 5707.93 9571.63 5846.7 9389.85C5916.1 9298.94 5976.34 9221.66 6022.53 9164.93C6045.65 9136.54 6065.09 9113.49 6080.32 9096.52C6096.32 9078.67 6105.78 9069.74 6109.5 9067.25L6081.68 9025.71C6071.86 9032.28 6058.32 9046.17 6043.1 9063.13C6027.1 9080.96 6007.09 9104.71 5983.76 9133.36C5937.07 9190.7 5876.47 9268.46 5806.96 9359.51C5667.9 9541.65 5492.73 9777.61 5321.03 10011.2C5149.31 10244.8 4980.98 10476.1 4855.59 10649C4792.89 10735.5 4740.92 10807.4 4704.63 10857.6C4686.49 10882.7 4672.26 10902.5 4662.56 10915.9C4657.72 10922.6 4654.01 10927.8 4651.5 10931.2C4650.25 10933 4649.31 10934.3 4648.67 10935.2C4648.35 10935.6 4648.11 10936 4647.95 10936.2C4647.87 10936.3 4647.81 10936.4 4647.77 10936.4C4647.75 10936.5 4647.74 10936.5 4647.73 10936.5C4647.72 10936.5 4647.71 10936.5 4668 10951.1ZM6741.49 9847.25C6735.64 9851.09 6699.3 9870.72 6637.43 9903.37C6576.5 9935.53 6492.55 9979.42 6393.38 10031.1C6195.06 10134.3 5935.97 10268.5 5678.65 10401.5C5421.34 10534.6 5165.81 10666.4 4974.62 10765C4879.02 10814.3 4799.5 10855.3 4743.89 10883.9C4716.08 10898.2 4694.24 10909.5 4679.36 10917.1C4671.92 10921 4666.22 10923.9 4662.38 10925.9C4660.46 10926.9 4659 10927.6 4658.03 10928.1C4657.54 10928.4 4657.17 10928.6 4656.92 10928.7C4656.8 10928.8 4656.71 10928.8 4656.65 10928.8C4656.62 10928.9 4656.59 10928.9 4656.58 10928.9C4656.56 10928.9 4656.55 10928.9 4668 10951.1C4679.45 10973.3 4679.45 10973.3 4679.47 10973.3C4679.48 10973.3 4679.51 10973.3 4679.54 10973.3C4679.6 10973.3 4679.69 10973.2 4679.82 10973.2C4680.06 10973 4680.43 10972.8 4680.92 10972.6C4681.89 10972.1 4683.35 10971.3 4685.27 10970.3C4689.11 10968.4 4694.82 10965.4 4702.26 10961.6C4717.14 10953.9 4738.98 10942.7 4766.79 10928.4C4822.41 10899.7 4901.93 10858.7 4997.53 10809.4C5188.74 10710.8 5444.28 10579 5701.61 10446C5958.94 10312.9 6218.08 10178.7 6416.48 10075.4C6515.67 10023.8 6599.71 9979.81 6660.76 9947.59C6720.86 9915.88 6760.48 9894.6 6768.95 9889.03L6741.49 9847.25ZM6131.89 9648.74C6204.72 9737.67 6294.24 9828.36 6399.81 9881.86C6506.55 9935.95 6629.43 9951.79 6765.43 9890.96L6745.02 9845.32C6624.53 9899.21 6517.5 9885.45 6422.41 9837.26C6326.14 9788.47 6241.92 9704.18 6170.58 9617.06L6131.89 9648.74ZM6076.36 9030.51C6011.72 9108.33 5989.06 9218.33 6000.16 9329.51C6011.29 9441 6056.56 9556.73 6131.89 9648.74L6170.58 9617.06C6101.76 9533.01 6060.11 9426.68 6049.92 9324.54C6039.69 9222.1 6061.29 9126.91 6114.82 9062.45L6076.36 9030.51ZM5730.59 9701.11C5751.96 9723.37 5783.6 9724.77 5810.72 9717.84C5838.68 9710.7 5868.04 9693.6 5893.37 9669.28L5858.75 9633.21C5838.47 9652.68 5816.5 9664.76 5798.34 9669.4C5779.34 9674.25 5770.07 9670.03 5766.66 9666.49L5730.59 9701.11ZM5769.04 9539.77C5743.71 9564.09 5725.42 9592.73 5717.15 9620.37C5709.12 9647.19 5709.22 9678.86 5730.59 9701.11L5766.66 9666.49C5763.26 9662.94 5759.42 9653.5 5765.05 9634.71C5770.42 9616.76 5783.39 9595.3 5803.66 9575.84L5769.04 9539.77ZM5931.82 9507.93C5910.45 9485.67 5878.81 9484.28 5851.69 9491.21C5823.73 9498.35 5794.37 9515.45 5769.04 9539.77L5803.66 9575.84C5823.94 9556.37 5845.91 9544.29 5864.07 9539.65C5883.07 9534.8 5892.35 9539.01 5895.75 9542.56L5931.82 9507.93ZM5893.37 9669.28C5918.7 9644.96 5936.99 9616.32 5945.26 9588.67C5953.29 9561.86 5953.19 9530.19 5931.82 9507.93L5895.75 9542.56C5899.15 9546.11 5902.99 9555.55 5897.36 9574.33C5891.99 9592.29 5879.02 9613.75 5858.75 9633.21L5893.37 9669.28ZM6125.21 9907.58C6102.98 9928.92 6079.08 9942.51 6059.36 9948.04C6038.49 9953.88 6028.82 9949.41 6025.62 9946.09L5989.55 9980.71C6011.68 10003.8 6044.87 10004 6072.84 9996.18C6101.96 9988.03 6132.86 9969.55 6159.84 9943.65L6125.21 9907.58ZM6167.75 9809.64C6170.95 9812.97 6175.01 9822.82 6168.32 9843.43C6162 9862.91 6147.44 9886.24 6125.21 9907.58L6159.84 9943.65C6186.82 9917.75 6206.55 9887.62 6215.88 9858.86C6224.85 9831.23 6225.94 9798.06 6203.82 9775.01L6167.75 9809.64ZM6068.16 9848.15C6090.39 9826.81 6114.29 9813.21 6134.01 9807.69C6154.88 9801.85 6164.55 9806.31 6167.75 9809.64L6203.82 9775.01C6181.7 9751.97 6148.51 9751.71 6120.53 9759.54C6091.42 9767.69 6060.51 9786.18 6033.53 9812.08L6068.16 9848.15ZM6025.62 9946.09C6022.43 9942.76 6018.36 9932.91 6025.05 9912.3C6031.37 9892.82 6045.93 9869.49 6068.16 9848.15L6033.53 9812.08C6006.55 9837.98 5986.82 9868.11 5977.49 9896.86C5968.52 9924.49 5967.43 9957.67 5989.55 9980.71L6025.62 9946.09ZM6768.95 9889.03C6788.89 9875.93 6810.38 9847.29 6828.33 9810.69C6846.81 9773.01 6863.13 9723.69 6870.75 9665.77C6886.05 9549.52 6866.25 9398.89 6759.25 9238.62L6717.66 9266.38C6817.72 9416.25 6834.94 9554.63 6821.18 9659.25C6814.27 9711.77 6799.54 9755.85 6783.44 9788.67C6766.81 9822.58 6750.2 9841.53 6741.49 9847.25L6768.95 9889.03ZM6759.25 9238.62C6651.77 9077.63 6512.08 9004.33 6384.42 8981.38C6258.18 8958.69 6142.33 8985.11 6081.68 9025.71L6109.5 9067.25C6157.19 9035.33 6259.23 9009.68 6375.58 9030.59C6490.5 9051.25 6618.08 9117.22 6717.66 9266.38L6759.25 9238.62Z" fill="#151515"/>
<path d="M6138.92 9597.15C6148.36 9595.36 6210.38 9521.85 6280.17 9544.57M6290.75 9754.31C6305.77 9740.89 6324.06 9719.87 6336.85 9695.4M6336.85 9695.4C6350.85 9668.65 6358.26 9637.79 6347.62 9608.29M6336.85 9695.4C6362.13 9718.77 6411.83 9754.2 6452.56 9755.19M6347.62 9608.29C6342.9 9595.23 6334.65 9582.44 6321.86 9570.38C6307.89 9557.22 6293.88 9549.04 6280.17 9544.57M6347.62 9608.29C6352.65 9600.96 6367.29 9583.11 6385.56 9570.36C6397.71 9561.88 6424.9 9561.12 6452.73 9568.54M6533.64 9680.74C6527.28 9700.5 6512.81 9720.86 6490.33 9741.86C6479.75 9751.74 6466.7 9755.54 6452.56 9755.19M6533.64 9680.74C6541.81 9655.37 6536.6 9630.98 6517.83 9607.5C6513.73 9602.38 6508.99 9597.71 6503.79 9593.5M6533.64 9680.74C6555.41 9682 6592.17 9689.41 6616.87 9708.31M6452.56 9755.19C6452.22 9762.7 6456.12 9784.73 6474.46 9812.79C6479.42 9820.37 6487.55 9826.76 6497.34 9832.12M6497.34 9832.12C6523.82 9846.6 6562.47 9853.43 6583.4 9855.22C6597.83 9845.64 6620.88 9824.68 6633.55 9797.64M6497.34 9832.12C6499.34 9842.06 6500.74 9864.07 6490.39 9872.58M6633.55 9797.64C6640.49 9782.84 6644.31 9766.21 6641.91 9748.62C6639.57 9731.46 6629.9 9718.28 6616.87 9708.31M6633.55 9797.64C6656.32 9810.7 6700.74 9830.68 6728.37 9826.73M6616.87 9708.31C6620.66 9702.11 6631.61 9684.49 6644.98 9663.56C6653.21 9650.69 6674.81 9646.51 6698.96 9650.07M6728.37 9826.73C6735.21 9825.75 6741.03 9823.31 6745.23 9818.92C6766.26 9796.96 6792.5 9748.89 6784.06 9711.19M6728.37 9826.73C6725.82 9832.79 6724.36 9846.33 6738.88 9851.99M6698.96 9650.07C6723.91 9653.75 6751.57 9665.68 6770.01 9684.81C6777.43 9692.51 6781.89 9701.51 6784.06 9711.19M6698.96 9650.07C6700.5 9635.23 6700.14 9613.02 6694.7 9591.58M6503.79 9593.5C6501.52 9591.81 6500.82 9583.11 6516.12 9561.83C6528.86 9544.12 6552.96 9527.75 6586.75 9524.49M6503.79 9593.5C6489.13 9581.64 6470.8 9573.36 6452.73 9568.54M6694.7 9591.58C6723.76 9605.97 6790.88 9625.81 6826.9 9590.09M6694.7 9591.58C6689.97 9572.96 6681.4 9554.93 6666.88 9542.84M6784.06 9711.19C6791.96 9704.94 6810.85 9693.65 6823.19 9698.46M6280.17 9544.57C6282.41 9519.25 6299.17 9464.5 6348.21 9448.07C6367.78 9441.51 6386.14 9441.96 6402.07 9446.39M6452.73 9568.54C6469.43 9531.8 6459.75 9524.09 6459.3 9499.9C6459.17 9492.98 6455.04 9484.1 6447.78 9475.42M6447.78 9475.42C6457.82 9461.76 6487.8 9437.88 6527.42 9451.73C6530.12 9452.68 6532.71 9453.69 6535.18 9454.76M6447.78 9475.42C6437.76 9463.45 6421.76 9451.88 6402.07 9446.39M6586.75 9524.49C6603.68 9522.86 6623.04 9524.52 6644.63 9530.95C6653.26 9533.52 6660.63 9537.63 6666.88 9542.84M6586.75 9524.49C6585.67 9508.48 6577.86 9473.19 6535.18 9454.76M6666.88 9542.84C6661.15 9524.4 6657.15 9480.55 6686.96 9452.67C6693.1 9446.93 6700.2 9441.9 6707.86 9437.64M6814.41 9437.17C6799.51 9414.05 6746.6 9416.06 6707.86 9437.64M6707.86 9437.64C6698.29 9418.94 6672.79 9387.62 6636.11 9382.27M6535.18 9454.76C6535.63 9446.41 6539.26 9433.36 6548.55 9420.43M6402.07 9446.39C6406.12 9423.17 6421.76 9381.68 6453.76 9379M6548.55 9420.43C6558.99 9405.9 6576.57 9391.54 6604.82 9384.16C6615.97 9381.25 6626.43 9380.85 6636.11 9382.27M6548.55 9420.43C6524.14 9397.98 6520.76 9393.86 6468.35 9380.36C6463.15 9379.02 6458.29 9378.62 6453.76 9379M6636.11 9382.27C6639.06 9359.6 6649.99 9321.89 6673.11 9295.21M6727.05 9264.95C6704.33 9267.77 6686.63 9279.6 6673.11 9295.21M6673.11 9295.21C6652.21 9272.62 6603.94 9234.29 6560.69 9239.6M6453.76 9379C6458.85 9327.08 6484.27 9271.07 6542.97 9244.53C6548.72 9241.93 6554.66 9240.34 6560.69 9239.6M6560.69 9239.6C6566.19 9230.72 6569.64 9205.43 6539.42 9175.33C6509.2 9145.23 6475.91 9148.05 6463.05 9153.22C6467 9150.4 6472.83 9142.19 6464.58 9132C6456.33 9121.8 6446.55 9124.62 6442.69 9127.31C6456.94 9109.75 6481.08 9068.61 6463.63 9044.51M6318.61 9177.63C6308.4 9173.26 6284.7 9170.52 6271.61 9194.49C6255.25 9224.45 6302.32 9237.51 6320 9240.29C6337.67 9243.07 6366.71 9246.77 6365.05 9220.92C6363.73 9200.24 6333.54 9183.45 6318.61 9177.63ZM6206.66 9392.94C6204.19 9391.98 6161.01 9329.61 6201.82 9315.1C6234.47 9303.49 6239.59 9331.71 6238.07 9347.27C6254.11 9340.38 6288.63 9331.81 6298.36 9352.7C6308.09 9373.59 6241.28 9388.23 6206.66 9392.94Z" stroke="#151515" stroke-width="25" stroke-linecap="round"/>
<path d="M6842.3 9508.96C6847.51 9508.47 7226.69 9451.47 7415.62 9423.02L7384.96 9262.22L7323.79 9279.56M6828.79 9419.83L7323.79 9279.56M6778.72 9319.62C6781.15 9318.1 7024.9 9194.34 7243.71 9083.31M7243.71 9083.31C7323.3 9042.92 7399.59 9004.22 7459.77 8973.7L7461.33 8837.22L6754.97 9277L7168.78 8922.27L6989.22 8895.08L6805.67 9127.14M7243.71 9083.31C7246.85 9092.25 7298.4 9217.87 7323.79 9279.56M6719.15 9236.52L6805.67 9127.14M6805.67 9127.14L6651.82 8648.69L6451.33 8858.9M6296.99 8999.61L6335.85 8964.18M6539.81 9064.96L6565.31 9008.94M6328.63 8982.71L6335.85 8964.18M6565.31 9008.94L6590.82 8952.92L6451.33 8858.9M6565.31 9008.94L6748.16 9116.63L6705.45 9188.44M6335.85 8964.18L6370.68 8810.41L6451.33 8858.9" stroke="#151515" stroke-width="50" stroke-linecap="round"/>
<path fill-rule="evenodd" clip-rule="evenodd" d="M12558 6802.47C12688.3 6860.03 12901.9 7019.09 13033.9 7138.15C13282.6 7205.87 13338.4 7098.62 13377.7 6990.76C13425.7 6859.18 13374.8 6774.83 13304.3 6657.91C13294 6640.96 13283.4 6623.32 13272.6 6604.76C13153.2 6399.74 12761.4 6184.53 12623.8 6108.93C12613 6103.01 12603.8 6097.94 12596.4 6093.81C12494.3 6036.85 12000.6 5917.93 11731.4 6066.5C11516.1 6185.36 11547.1 6341.48 11589.6 6404.69C11775.8 6602.69 11850.5 6634.02 11927.3 6666.29C11944.3 6673.41 11961.3 6680.57 11979.7 6689.57C12029 6713.72 12135.1 6727.21 12246.5 6741.37C12365.1 6756.43 12489.5 6772.25 12558 6802.47ZM12355.8 6317.48C12331.8 6368.08 12285.4 6396.99 12252.1 6382.06C12218.9 6367.12 12211.4 6314 12235.4 6263.4C12259.4 6212.8 12305.8 6183.89 12339 6198.82C12372.3 6213.75 12379.8 6266.88 12355.8 6317.48ZM12890.2 6681.46C12923.5 6696.39 12969.9 6667.48 12993.8 6616.88C13017.8 6566.28 13010.3 6513.16 12977.1 6498.23C12943.8 6483.29 12897.4 6512.21 12873.4 6562.81C12849.4 6613.41 12856.9 6666.53 12890.2 6681.46Z" fill="#151515"/>
<path d="M13033.9 7138.15L13017.1 7156.71L13021.6 7160.7L13027.3 7162.27L13033.9 7138.15ZM12558 6802.47L12568.1 6779.61L12568.1 6779.61L12558 6802.47ZM13377.7 6990.76L13401.2 6999.32L13401.2 6999.32L13377.7 6990.76ZM13304.3 6657.91L13325.7 6645L13304.3 6657.91ZM13272.6 6604.76L13294.2 6592.18L13272.6 6604.76ZM12623.8 6108.93L12635.8 6087.02L12635.8 6087.02L12623.8 6108.93ZM12596.4 6093.81L12584.2 6115.64L12584.2 6115.64L12596.4 6093.81ZM11731.4 6066.5L11719.3 6044.61L11731.4 6066.5ZM11589.6 6404.69L11568.8 6418.63L11570 6420.33L11571.4 6421.82L11589.6 6404.69ZM11927.3 6666.29L11917.6 6689.34L11917.6 6689.34L11927.3 6666.29ZM11979.7 6689.57L11990.7 6667.12L11990.7 6667.12L11979.7 6689.57ZM12246.5 6741.37L12249.7 6716.57L12249.7 6716.57L12246.5 6741.37ZM12252.1 6382.06L12262.4 6359.25L12262.4 6359.25L12252.1 6382.06ZM12339 6198.82L12349.3 6176.02L12349.3 6176.02L12339 6198.82ZM12993.8 6616.88L12971.3 6606.17L12971.3 6606.17L12993.8 6616.88ZM12977.1 6498.23L12966.8 6521.03L12966.8 6521.03L12977.1 6498.23ZM12873.4 6562.81L12850.8 6552.1L12850.8 6552.1L12873.4 6562.81ZM11506.8 6822.9L11483.6 6832.15L11483.6 6832.15L11506.8 6822.9ZM11807.4 7044.45L11810.1 7019.59L11808 7019.37L11805.8 7019.5L11807.4 7044.45ZM12018.4 7115.39L12040.2 7103.16L12033.5 7091.33L12020 7090.44L12018.4 7115.39ZM12270.9 7254.18L12286.8 7234.89L12277.5 7227.3L12265.9 7229.69L12270.9 7254.18ZM12809 7382.83L12819.9 7360.32L12806.2 7353.69L12794 7362.83L12809 7382.83ZM12998.4 7332.28L13018.1 7347.71L13018.1 7347.71L12998.4 7332.28ZM13032.9 7179.5L13057.9 7178.27L13057.9 7178.27L13032.9 7179.5ZM11901.9 7076.4L11893.6 7099.98L11893.8 7100.03L11893.9 7100.07L11901.9 7076.4ZM11901.9 7076.4L11910.9 7053.08L11910.5 7052.9L11910 7052.73L11901.9 7076.4ZM11901.9 7076.4L11892.9 7099.72L11893.3 7099.86L11893.6 7099.98L11901.9 7076.4ZM12533.4 7393.17L12539.4 7368.91L12539.4 7368.91L12533.4 7393.17ZM13050.6 7119.59C12918.1 6999.98 12702.1 6838.79 12568.1 6779.61L12547.9 6825.34C12674.5 6881.28 12885.8 7038.21 13017.1 7156.71L13050.6 7119.59ZM13354.3 6982.2C13334.6 7036.14 13313.1 7082.34 13270.9 7109.21C13229.5 7135.58 13161.8 7147.06 13040.4 7114.03L13027.3 7162.27C13154.7 7196.96 13239.2 7188.68 13297.8 7151.38C13355.5 7114.6 13381.6 7053.24 13401.2 6999.32L13354.3 6982.2ZM13282.9 6670.83C13318.6 6730.02 13347 6777.48 13361.5 6825.98C13375.5 6872.95 13376.4 6921.43 13354.3 6982.2L13401.2 6999.32C13427 6928.51 13426.5 6869.03 13409.4 6811.7C13392.8 6755.9 13360.5 6702.72 13325.7 6645L13282.9 6670.83ZM13251 6617.34C13261.9 6636.1 13272.6 6653.9 13282.9 6670.83L13325.7 6645C13315.4 6628.03 13304.9 6610.55 13294.2 6592.18L13251 6617.34ZM12611.7 6130.84C12680.5 6168.64 12811.9 6240.83 12940.9 6328.95C13070.9 6417.76 13194.4 6520.13 13251 6617.34L13294.2 6592.18C13231.4 6484.37 13099.3 6376.63 12969.1 6287.67C12837.9 6198.03 12704.6 6124.82 12635.8 6087.02L12611.7 6130.84ZM12584.2 6115.64C12591.7 6119.82 12601 6124.93 12611.7 6130.84L12635.8 6087.02C12625 6081.08 12615.9 6076.06 12608.6 6071.98L12584.2 6115.64ZM11743.5 6088.39C11871.1 6017.96 12055.3 6009.8 12223.9 6027.94C12307.5 6036.94 12386 6052.27 12449.7 6068.82C12514.1 6085.53 12561.6 6103.01 12584.2 6115.64L12608.6 6071.98C12580.2 6056.13 12527.6 6037.38 12462.3 6020.42C12396.3 6003.29 12315.4 5987.5 12229.2 5978.23C12058.1 5959.81 11860.9 5966.48 11719.3 6044.61L11743.5 6088.39ZM11610.3 6390.75C11592.3 6363.96 11576.1 6316.05 11588.2 6261.93C11600.1 6208.71 11640.5 6145.23 11743.5 6088.39L11719.3 6044.61C11607 6106.63 11555.2 6180.64 11539.4 6251C11523.9 6320.46 11544.4 6382.22 11568.8 6418.63L11610.3 6390.75ZM11937 6643.24C11899 6627.27 11863.2 6612.23 11813.9 6577.26C11764.3 6541.97 11700.3 6485.93 11607.8 6387.56L11571.4 6421.82C11665.1 6521.45 11731.6 6580.07 11785 6618.02C11838.9 6656.28 11878.8 6673.03 11917.6 6689.34L11937 6643.24ZM11990.7 6667.12C11971.6 6657.75 11953.9 6650.33 11937 6643.24L11917.6 6689.34C11934.6 6696.48 11951.1 6703.38 11968.7 6712.03L11990.7 6667.12ZM12249.7 6716.57C12193.8 6709.47 12140.1 6702.63 12094.2 6694.59C12047.5 6686.43 12011.8 6677.48 11990.7 6667.12L11968.7 6712.03C11996.9 6725.82 12038.9 6735.68 12085.5 6743.84C12132.8 6752.13 12187.9 6759.11 12243.4 6766.17L12249.7 6716.57ZM12568.1 6779.61C12530.9 6763.2 12480.2 6751.28 12425.4 6741.61C12370.2 6731.87 12308.8 6724.08 12249.7 6716.57L12243.4 6766.17C12302.8 6773.72 12362.9 6781.36 12416.7 6790.85C12470.9 6800.41 12516.6 6811.52 12547.9 6825.34L12568.1 6779.61ZM12241.9 6404.86C12268.7 6416.89 12297.6 6409.92 12320.7 6395.56C12344 6381.01 12364.6 6357.22 12378.4 6328.19L12333.2 6306.77C12323 6328.33 12308.4 6344.29 12294.2 6353.12C12279.8 6362.13 12268.8 6362.16 12262.4 6359.25L12241.9 6404.86ZM12212.8 6252.69C12199 6281.71 12193.7 6312.57 12197.5 6339.6C12201.3 6366.42 12214.9 6392.75 12241.9 6404.86L12262.4 6359.25C12256.1 6356.43 12249.3 6348.73 12247 6332.61C12244.8 6316.69 12247.7 6295.69 12258 6274.11L12212.8 6252.69ZM12349.3 6176.02C12322.5 6163.99 12293.5 6170.95 12270.5 6185.32C12247.2 6199.86 12226.5 6223.66 12212.8 6252.69L12258 6274.11C12268.2 6252.55 12282.8 6236.59 12296.9 6227.76C12311.4 6218.75 12322.3 6218.72 12328.8 6221.63L12349.3 6176.02ZM12378.4 6328.19C12392.1 6299.17 12397.4 6268.31 12393.6 6241.28C12389.8 6214.45 12376.2 6188.13 12349.3 6176.02L12328.8 6221.63C12335 6224.45 12341.8 6232.15 12344.1 6248.27C12346.4 6264.19 12343.4 6285.19 12333.2 6306.77L12378.4 6328.19ZM12971.3 6606.17C12961 6627.73 12946.4 6643.7 12932.3 6652.53C12917.8 6661.54 12906.9 6661.56 12900.4 6658.66L12880 6704.27C12906.7 6716.29 12935.7 6709.33 12958.7 6694.96C12982.1 6680.42 13002.7 6656.63 13016.4 6627.59L12971.3 6606.17ZM12966.8 6521.03C12973.1 6523.85 12979.9 6531.55 12982.2 6547.68C12984.4 6563.59 12981.5 6584.59 12971.3 6606.17L13016.4 6627.59C13030.2 6598.57 13035.5 6567.71 13031.7 6540.68C13027.9 6513.86 13014.3 6487.54 12987.3 6475.42L12966.8 6521.03ZM12896 6573.52C12906.2 6551.95 12920.8 6535.99 12935 6527.16C12949.5 6518.15 12960.4 6518.13 12966.8 6521.03L12987.3 6475.42C12960.5 6463.39 12931.6 6470.36 12908.6 6484.72C12885.2 6499.27 12864.6 6523.06 12850.8 6552.1L12896 6573.52ZM12900.4 6658.66C12894.2 6655.84 12887.4 6648.13 12885.1 6632.01C12882.9 6616.1 12885.8 6595.09 12896 6573.52L12850.8 6552.1C12837.1 6581.12 12831.8 6611.97 12835.6 6639.01C12839.4 6665.83 12853 6692.15 12880 6704.27L12900.4 6658.66ZM11573.4 6385.65C11505.4 6443.47 11395.9 6611.83 11483.6 6832.15L11530 6813.65C11452.2 6618.28 11549.6 6471.52 11605.8 6423.73L11573.4 6385.65ZM11483.6 6832.15C11526.6 6940.29 11584.1 7002.08 11644.3 7035.5C11704.3 7068.76 11764.1 7072.27 11809 7069.4L11805.8 7019.5C11766.2 7022.03 11717.1 7018.69 11668.6 6991.78C11620.3 6965.04 11569.7 6913.35 11530 6813.65L11483.6 6832.15ZM11996.6 7127.61C12011.2 7153.68 12043.2 7198.12 12089.8 7232.83C12136.8 7267.8 12200.4 7294.1 12275.9 7278.68L12265.9 7229.69C12208.4 7241.42 12159.1 7222.07 12119.7 7192.73C12079.9 7163.12 12052.2 7124.59 12040.2 7103.16L11996.6 7127.61ZM12798.1 7405.33C12848.5 7429.69 12891.7 7433.15 12929.8 7419.28C12966.7 7405.85 12994.7 7377.58 13018.1 7347.71L12978.8 7316.86C12957.1 7344.52 12936.3 7363.73 12912.7 7372.3C12890.4 7380.43 12861.4 7380.4 12819.9 7360.32L12798.1 7405.33ZM13018.1 7347.71C13064.1 7289.06 13059.9 7219.65 13057.9 7178.27L13008 7180.72C13010.1 7223.92 13011.8 7274.7 12978.8 7316.86L13018.1 7347.71ZM13057.9 7178.27C13057.5 7169.35 13057.1 7162.09 13057.2 7155.92C13057.2 7149.53 13057.6 7146.12 13058.1 7144.53L13009.7 7131.77C13007.6 7139.63 13007.2 7148.16 13007.2 7155.72C13007.1 7163.49 13007.6 7172.18 13008 7180.72L13057.9 7178.27ZM11804.8 7069.31C11803 7069.12 11802.3 7068.8 11804.4 7069.39C11805.8 7069.78 11807.8 7070.39 11810.4 7071.23C11815.7 7072.91 11822.8 7075.3 11831.4 7078.23C11848.4 7084.08 11870.6 7091.88 11893.6 7099.98L11910.2 7052.82C11887.3 7044.74 11864.9 7036.86 11847.6 7030.92C11838.9 7027.96 11831.4 7025.43 11825.6 7023.59C11822.7 7022.68 11820.1 7021.87 11817.9 7021.26C11816.4 7020.85 11813.2 7019.93 11810.1 7019.59L11804.8 7069.31ZM11893.9 7100.07L11893.9 7100.07L11910 7052.73L11910 7052.73L11893.9 7100.07ZM11892.9 7099.72L11892.9 7099.72L11910.9 7053.08L11910.9 7053.08L11892.9 7099.72ZM11893.6 7099.98C11920 7109.27 11947.5 7118.95 11969.3 7126.37C11980.2 7130.07 11989.8 7133.26 11997.2 7135.58C12000.9 7136.73 12004.2 7137.73 12007 7138.48C12009 7139 12013 7140.09 12016.7 7140.33L12020 7090.44C12022 7090.57 12022.7 7090.93 12020 7090.2C12018.2 7089.7 12015.5 7088.92 12012.1 7087.85C12005.3 7085.73 11996.2 7082.7 11985.4 7079.03C11963.9 7071.72 11936.7 7062.14 11910.2 7052.82L11893.6 7099.98ZM12255 7273.47C12264.9 7281.67 12305.9 7310.73 12357 7340.84C12407.9 7370.86 12471.9 7403.66 12527.3 7417.44L12539.4 7368.91C12491.2 7356.95 12432.5 7327.29 12382.3 7297.76C12332.4 7268.32 12293.9 7240.76 12286.8 7234.89L12255 7273.47ZM12527.3 7417.44C12578.8 7430.21 12631.2 7442.67 12680.7 7444.12C12731 7445.6 12780.1 7435.81 12824 7402.83L12794 7362.83C12761.6 7387.14 12724.7 7395.39 12682.1 7394.14C12638.8 7392.88 12591.6 7381.87 12539.4 7368.91L12527.3 7417.44Z" fill="#151515"/>
<path fill-rule="evenodd" clip-rule="evenodd" d="M14191.9 1706.9C14093.8 1792.75 13021 3779.24 13021 3779.24C13021 3779.24 14899.8 2481.66 14951.7 2436.97C14712.1 2583.7 14488.1 2437.37 14322.5 2281.31C14156.9 2125.24 14093 1863.2 14191.9 1706.9ZM14052 2334.87C14012.4 2384.15 13957.7 2405.94 13929.8 2383.53C13901.9 2361.13 13911.4 2303.01 13951 2253.73C13990.6 2204.45 14045.3 2182.66 14073.2 2205.07C14101.1 2227.47 14091.6 2285.59 14052 2334.87ZM14222.5 2627.53C14251 2650.43 14308.8 2625.89 14351.5 2572.71C14394.2 2519.54 14405.8 2457.87 14377.3 2434.97C14348.8 2412.07 14291 2436.61 14248.3 2489.79C14205.6 2542.96 14194 2604.63 14222.5 2627.53Z" fill="#151515"/>
<path d="M13021 3779.24L12999 3767.36C12993.5 3777.53 12995.7 3790.14 13004.3 3797.85C13012.9 3805.57 13025.7 3806.38 13035.2 3799.81L13021 3779.24ZM14191.9 1706.9L14213.1 1720.27C14219.7 1709.78 14217.6 1695.99 14208.2 1687.91C14198.8 1679.84 14184.8 1679.91 14175.5 1688.09L14191.9 1706.9ZM14951.7 2436.97L14968 2455.92C14977.9 2447.43 14979.6 2432.77 14971.9 2422.24C14964.2 2411.71 14949.8 2408.84 14938.7 2415.65L14951.7 2436.97ZM13929.8 2383.53L13914.1 2403.02L13914.1 2403.02L13929.8 2383.53ZM14052 2334.87L14071.5 2350.53L14071.5 2350.53L14052 2334.87ZM14073.2 2205.07L14088.8 2185.58L14088.8 2185.58L14073.2 2205.07ZM14351.5 2572.71L14332 2557.05L14332 2557.05L14351.5 2572.71ZM14222.5 2627.53L14238.2 2608.04L14238.2 2608.04L14222.5 2627.53ZM14248.3 2489.79L14228.8 2474.13L14228.8 2474.13L14248.3 2489.79ZM14935.4 2418.01C14924.9 2427.02 14923.8 2442.8 14932.8 2453.27C14941.8 2463.74 14957.5 2464.93 14968 2455.92L14935.4 2418.01ZM14856 1828.59L14874.8 1812.15L14874.8 1812.15L14856 1828.59ZM14175.5 1688.09C14165.1 1697.18 14164 1712.98 14173.1 1723.37C14182.2 1733.76 14198 1734.81 14208.4 1725.72L14175.5 1688.09ZM13021 3779.24C13043 3791.12 13043 3791.11 13043 3791.1C13043 3791.08 13043 3791.06 13043 3791.03C13043.1 3790.97 13043.1 3790.88 13043.2 3790.76C13043.3 3790.52 13043.5 3790.16 13043.8 3789.68C13044.3 3788.73 13045.1 3787.3 13046.1 3785.42C13048.1 3781.67 13051.1 3776.09 13055.1 3768.8C13062.9 3754.24 13074.5 3732.86 13089.3 3705.63C13118.8 3651.15 13161.1 3573.23 13212.1 3479.46C13314.2 3291.92 13451.4 3040.97 13591.6 2787.36C13731.8 2533.72 13875 2277.52 13989.3 2079.42C14046.4 1980.34 14096.2 1895.96 14134.7 1833.76C14154 1802.64 14170.3 1777.28 14183.2 1758.49C14196.8 1738.74 14205 1728.66 14208.4 1725.72L14175.5 1688.09C14166.6 1695.88 14154.9 1711.38 14142 1730.16C14128.5 1749.9 14111.7 1776.03 14092.2 1807.44C14053.3 1870.3 14003.2 1955.21 13945.9 2054.43C13831.4 2252.94 13688.1 2509.46 13547.8 2763.17C13407.5 3016.91 13270.3 3267.95 13168.2 3455.56C13117.1 3549.36 13074.8 3627.3 13045.3 3681.8C13030.5 3709.05 13019 3730.44 13011.1 3745.01C13007.1 3752.3 13004.1 3757.89 13002.1 3761.65C13001.1 3763.53 13000.3 3764.96 12999.8 3765.91C12999.5 3766.39 12999.3 3766.75 12999.2 3766.99C12999.1 3767.12 12999.1 3767.21 12999.1 3767.27C12999 3767.3 12999 3767.32 12999 3767.34C12999 3767.35 12999 3767.36 13021 3779.24ZM14935.4 2418.01C14930.1 2422.58 14896.6 2446.71 14839.4 2487.05C14783.1 2526.77 14705.5 2581.09 14613.8 2645.05C14430.4 2772.96 14190.7 2939.33 13952.6 3104.31C13714.5 3269.3 13478.1 3432.89 13301.1 3555.23C13212.7 3616.4 13139.1 3667.26 13087.6 3702.83C13061.9 3720.61 13041.7 3734.57 13027.9 3744.09C13021 3748.84 13015.7 3752.49 13012.2 3754.94C13010.4 3756.17 13009.1 3757.1 13008.2 3757.73C13007.7 3758.04 13007.4 3758.27 13007.1 3758.43C13007 3758.51 13006.9 3758.57 13006.9 3758.61C13006.8 3758.63 13006.8 3758.64 13006.8 3758.65C13006.8 3758.66 13006.8 3758.67 13021 3779.24C13035.2 3799.81 13035.2 3799.8 13035.2 3799.79C13035.2 3799.78 13035.3 3799.77 13035.3 3799.75C13035.3 3799.71 13035.4 3799.65 13035.5 3799.57C13035.8 3799.42 13036.1 3799.18 13036.6 3798.87C13037.5 3798.24 13038.8 3797.31 13040.6 3796.08C13044.2 3793.63 13049.4 3789.98 13056.3 3785.22C13070.1 3775.71 13090.3 3761.75 13116 3743.96C13167.5 3708.39 13241.1 3657.53 13329.6 3596.36C13506.5 3474.01 13743 3310.41 13981.1 3145.41C14219.2 2980.42 14458.9 2814.01 14642.4 2686.06C14734.2 2622.08 14811.8 2567.7 14868.2 2527.9C14923.8 2488.72 14960.3 2462.53 14968 2455.92L14935.4 2418.01ZM14305.4 2299.5C14389 2378.34 14489.4 2456.77 14601 2496.25C14713.8 2536.18 14837.7 2536.09 14964.8 2458.29L14938.7 2415.65C14826.1 2484.58 14718.2 2484.69 14617.7 2449.12C14516 2413.11 14421.6 2340.34 14339.6 2263.11L14305.4 2299.5ZM14170.8 1693.54C14116.7 1779.02 14108.4 1891.02 14133.7 1999.85C14159.1 2108.99 14218.8 2217.94 14305.4 2299.5L14339.6 2263.11C14260.6 2188.61 14205.6 2088.51 14182.4 1988.53C14159.1 1888.25 14168.3 1791.08 14213.1 1720.27L14170.8 1693.54ZM13914.1 2403.02C13938.2 2422.35 13969.7 2419.67 13995.7 2409.31C14022.5 2398.63 14049.5 2377.9 14071.5 2350.53L14032.5 2319.21C14014.9 2341.12 13994.6 2355.92 13977.2 2362.86C13959 2370.12 13949.3 2367.13 13945.4 2364.05L13914.1 2403.02ZM13931.5 2238.07C13909.5 2265.44 13895.1 2296.2 13890.4 2324.68C13885.9 2352.31 13890.1 2383.7 13914.1 2403.02L13945.4 2364.05C13941.6 2360.97 13936.6 2352.1 13939.7 2332.74C13942.8 2314.25 13952.9 2291.3 13970.5 2269.39L13931.5 2238.07ZM14088.8 2185.58C14064.8 2166.25 14033.2 2168.93 14007.2 2179.29C13980.4 2189.97 13953.5 2210.7 13931.5 2238.07L13970.5 2269.39C13988.1 2247.48 14008.3 2232.68 14025.7 2225.74C14043.9 2218.49 14053.7 2221.47 14057.5 2224.55L14088.8 2185.58ZM14071.5 2350.53C14093.4 2323.16 14107.9 2292.4 14112.6 2263.92C14117.1 2236.3 14112.9 2204.9 14088.8 2185.58L14057.5 2224.55C14061.4 2227.63 14066.4 2236.5 14063.2 2255.86C14060.2 2274.35 14050.1 2297.3 14032.5 2319.21L14071.5 2350.53ZM14332 2557.05C14312.7 2581.07 14290.7 2597.63 14271.9 2605.64C14251.9 2614.12 14241.8 2610.93 14238.2 2608.04L14206.9 2647.02C14231.8 2667.03 14264.7 2663.02 14291.4 2651.66C14319.3 2639.83 14347.6 2617.52 14371 2588.37L14332 2557.05ZM14361.6 2454.46C14365.2 2457.35 14370.5 2466.59 14366.5 2487.89C14362.7 2508.02 14351.3 2533.03 14332 2557.05L14371 2588.37C14394.4 2559.22 14410.1 2526.81 14415.7 2497.09C14421 2468.53 14417.8 2435.49 14392.9 2415.48L14361.6 2454.46ZM14267.8 2505.45C14287.1 2481.43 14309 2464.87 14327.9 2456.86C14347.8 2448.38 14358 2451.57 14361.6 2454.46L14392.9 2415.48C14368 2395.47 14335.1 2399.48 14308.3 2410.84C14280.5 2422.67 14252.2 2444.98 14228.8 2474.13L14267.8 2505.45ZM14238.2 2608.04C14234.6 2605.15 14229.3 2595.91 14233.3 2574.61C14237 2554.48 14248.5 2529.47 14267.8 2505.45L14228.8 2474.13C14205.4 2503.28 14189.7 2535.69 14184.1 2565.41C14178.8 2593.97 14182 2627.01 14206.9 2647.02L14238.2 2608.04ZM14968 2455.92C14986.1 2440.37 15003.7 2409.2 15016.8 2370.6C15030.3 2330.85 15040.2 2279.85 15040.3 2221.43C15040.5 2104.17 15001.5 1957.34 14874.8 1812.15L14837.1 1845.02C14955.6 1980.79 14990.5 2115.81 14990.3 2221.33C14990.2 2274.3 14981.2 2319.91 14969.5 2354.53C14957.3 2390.29 14943.3 2411.22 14935.4 2418.01L14968 2455.92ZM14874.8 1812.15C14747.5 1666.31 14599.6 1611.57 14470 1605.22C14341.9 1598.94 14230.4 1640.03 14175.5 1688.09L14208.4 1725.72C14251.6 1687.93 14349.5 1649.38 14467.6 1655.16C14584.2 1660.88 14719.2 1709.9 14837.1 1845.02L14874.8 1812.15Z" fill="#151515"/>
<path d="M14305.7 2247.44C14314.8 2244.45 14366.9 2163.58 14439 2177.14M14476.5 2383.78C14489.6 2368.54 14505.1 2345.34 14514.6 2319.44M14514.6 2319.44C14525.1 2291.11 14528.4 2259.55 14514.1 2231.66M14514.6 2319.44C14542.7 2339.36 14596.5 2368.11 14637 2363.86M14514.1 2231.66C14507.7 2219.32 14497.9 2207.69 14483.7 2197.38C14468.1 2186.12 14453.2 2179.81 14439 2177.14M14514.1 2231.66C14518.1 2223.75 14530.4 2204.16 14546.8 2189.17C14557.8 2179.2 14584.7 2174.95 14613.2 2178.73M14707.9 2279.61C14704.1 2300.02 14692.4 2322.07 14672.8 2345.78C14663.6 2356.94 14651.1 2362.38 14637 2363.86M14707.9 2279.61C14712.7 2253.39 14704.4 2229.87 14682.8 2209C14678.1 2204.45 14672.8 2200.43 14667.1 2196.92M14707.9 2279.61C14729.6 2278.05 14767 2280.67 14794 2296.24M14637 2363.86C14637.7 2371.35 14644.4 2392.7 14666.2 2418.16C14672.1 2425.04 14680.9 2430.34 14691.3 2434.39M14691.3 2434.39C14719.5 2445.34 14758.7 2447.15 14779.7 2446.24C14792.7 2434.88 14812.9 2411.14 14822 2382.69M14691.3 2434.39C14694.6 2443.99 14698.8 2465.63 14689.6 2475.41M14822 2382.69C14827 2367.12 14828.6 2350.13 14824 2333.01C14819.5 2316.28 14808.2 2304.46 14794 2296.24M14822 2382.69C14846.2 2392.72 14892.9 2406.82 14919.8 2399.35M14794 2296.24C14796.9 2289.61 14805.5 2270.73 14816.1 2248.25C14822.6 2234.43 14843.5 2227.51 14867.9 2227.94M14919.8 2399.35C14926.4 2397.5 14931.9 2394.33 14935.5 2389.44C14953.5 2364.96 14973.3 2313.92 14960.1 2277.62M14919.8 2399.35C14918 2405.69 14918.3 2419.31 14933.4 2423.05M14867.9 2227.94C14893.1 2228.38 14922.1 2236.65 14942.8 2253.26C14951.2 2259.94 14956.7 2268.29 14960.1 2277.62M14867.9 2227.94C14867.5 2213.03 14864.3 2191.04 14856.1 2170.48M14667.1 2196.92C14664.6 2195.54 14662.8 2187 14675.2 2163.93C14685.6 2144.73 14707.4 2125.4 14740.5 2117.82M14667.1 2196.92C14651 2187.04 14631.8 2181.19 14613.2 2178.73M14856.1 2170.48C14886.8 2181.02 14955.9 2192.07 14987.1 2152.01M14856.1 2170.48C14849.1 2152.62 14838.2 2135.84 14822.3 2125.72M14960.1 2277.62C14967.2 2270.4 14984.5 2256.77 14997.3 2259.95M14439 2177.14C14438 2151.74 14447.6 2095.29 14494.1 2072.69C14512.7 2063.67 14530.9 2061.76 14547.3 2064.11M14613.2 2178.73C14625.1 2140.15 14614.5 2133.74 14610.9 2109.82C14609.9 2102.97 14604.7 2094.69 14596.3 2087.02M14596.3 2087.02C14604.5 2072.18 14631.2 2044.65 14672.3 2053.29C14675.1 2053.89 14677.8 2054.55 14680.4 2055.3M14596.3 2087.02C14584.9 2076.44 14567.5 2067.02 14547.3 2064.11M14740.5 2117.82C14757.1 2114.03 14776.5 2113.18 14798.7 2116.78C14807.6 2118.23 14815.4 2121.35 14822.3 2125.72M14740.5 2117.82C14737.3 2102.09 14725.1 2068.09 14680.4 2055.3M14822.3 2125.72C14814.2 2108.16 14804.6 2065.19 14830.6 2033.72C14836 2027.23 14842.4 2021.33 14849.4 2016.12M14955 2001.96C14937.3 1980.95 14885.1 1989.74 14849.4 2016.12M14849.4 2016.12C14837.5 1998.81 14808.2 1971.03 14771.1 1970.43M14680.4 2055.3C14679.7 2046.96 14681.7 2033.55 14689.2 2019.53M14547.3 2064.11C14548.3 2040.56 14558.5 1997.4 14589.9 1990.63M14689.2 2019.53C14697.7 2003.79 14713.3 1987.28 14740.3 1976.33C14751 1972.01 14761.4 1970.27 14771.1 1970.43M14689.2 2019.53C14662.1 2000.41 14658.2 1996.76 14604.5 1990.11C14599.2 1989.45 14594.3 1989.67 14589.9 1990.63M14771.1 1970.43C14771.2 1947.58 14777.1 1908.77 14796.6 1879.34M14846.2 1842.4C14824.1 1848.11 14808 1862.12 14796.6 1879.34M14796.6 1879.34C14773 1859.62 14720.2 1827.82 14678 1838.64M14589.9 1990.63C14588.3 1938.48 14606.3 1879.68 14661.1 1845.81C14666.4 1842.49 14672.1 1840.15 14678 1838.64M14678 1838.64C14682.3 1829.13 14682.5 1803.61 14648.7 1777.64C14614.8 1751.67 14582.2 1758.75 14570.1 1765.53C14573.6 1762.22 14578.4 1753.34 14568.9 1744.29C14559.4 1735.23 14550 1739.29 14546.6 1742.45C14558.4 1723.2 14577.1 1679.3 14556.7 1657.65M14430 1808.3C14419.3 1805.28 14395.4 1805.61 14385.5 1831.06C14373.2 1862.88 14421.5 1869.78 14439.4 1870.27C14457.3 1870.75 14486.6 1870.68 14481.6 1845.26C14477.6 1824.93 14445.5 1812.15 14430 1808.3ZM14346.6 2036.21C14344 2035.58 14293.2 1979.28 14331.8 1959.64C14362.7 1943.93 14371.4 1971.26 14371.9 1986.89C14386.9 1977.99 14420.1 1965.05 14432.4 1984.52C14444.7 2003.99 14380.4 2027.1 14346.6 2036.21Z" stroke="#151515" stroke-width="25" stroke-linecap="round"/>
<path d="M14991.9 2069.57C14997 2068.42 15365.7 1963.15 15549.4 1910.66L15498.3 1755.13L15439.9 1780.19M14967 1982.92L15439.9 1780.19M14904.5 1889.97C14906.7 1888.16 15132.5 1734.1 15335.3 1595.86M15335.3 1595.86C15409 1545.58 15479.7 1497.39 15535.5 1459.39L15519.5 1323.84L14875.5 1850.77L15240.3 1445.79L15058.7 1441.9L14906.5 1695.63M15335.3 1595.86C15339.5 1604.32 15406.8 1722.27 15439.9 1780.19M14834.8 1815.22L14906.5 1695.63M14906.5 1695.63L14692.4 1240.93L14520.6 1475.16M14385.6 1634.54L14419.6 1594.41M14634.9 1668.14L14652.9 1609.3M14414.9 1613.71L14419.6 1594.41M14652.9 1609.3L14671 1550.47L14520.6 1475.16M14652.9 1609.3L14848.1 1692.6L14815 1769.3M14419.6 1594.41L14434.4 1437.44L14520.6 1475.16" stroke="#151515" stroke-width="50" stroke-linecap="round"/>
</g>
<defs>
<clipPath id="clip0">
<rect width="16914" height="12766" fill="white"/>
</clipPath>
</defs>
</svg>
